<svg width="165" height="38" fill="none" xmlns="http://www.w3.org/2000/svg"><path d="M62.8 15.47c0 1.56-.32 2.87-.96 3.93a6.081 6.081 0 0 1-2.61 2.385c-1.1.53-2.36.795-3.78.795h-4.395v-3.51c.27-.02.685-.04 1.245-.06a97.22 97.22 0 0 1 1.635-.045c.54-.02.91-.03 1.11-.03.8 0 1.405-.19 1.815-.57.41-.38.685-.835.825-1.365.14-.54.21-1.05.21-1.53 0-.47-.07-.97-.21-1.5-.14-.54-.415-1-.825-1.38-.41-.38-1.015-.57-1.815-.57h-.9c-.29-.01-.64-.02-1.05-.03V29c-.4.07-.825.115-1.275.135-.44.03-.82.045-1.14.045-.29 0-.67-.015-1.14-.045-.46-.02-.88-.065-1.26-.135V8.66l.21-.21c1.28-.03 2.475-.055 3.585-.075 1.12-.03 2.245-.045 3.375-.045 1.42 0 2.68.26 3.78.78a5.78 5.78 0 0 1 2.61 2.355c.64 1.05.96 2.385.96 4.005zm4.092 7.56v-3.225h5.655v-.345c0-.46-.065-.88-.195-1.26-.13-.39-.34-.7-.63-.93-.28-.24-.66-.36-1.14-.36-.73 0-1.245.3-1.545.9-.29.6-.435 1.525-.435 2.775v1.41c0 .68.06 1.315.18 1.905.12.59.375 1.065.765 1.425.39.36.985.54 1.785.54.68 0 1.345-.085 1.995-.255.66-.18 1.29-.395 1.89-.645.35.34.63.77.84 1.29.21.52.35 1.015.42 1.485-.76.55-1.67.97-2.73 1.26-1.05.3-2.11.45-3.18.45-1.32 0-2.41-.215-3.27-.645-.86-.44-1.54-1.03-2.04-1.77a7.46 7.46 0 0 1-1.065-2.52c-.2-.94-.3-1.905-.3-2.895 0-1.51.225-2.87.675-4.08.46-1.22 1.185-2.185 2.175-2.895.99-.71 2.28-1.065 3.87-1.065 1.32 0 2.445.28 3.375.84a5.57 5.57 0 0 1 2.13 2.28c.5.95.75 2.03.75 3.24a10.53 10.53 0 0 1-.405 3.09h-9.57zM80.29 12.335c0-1.04.19-1.77.57-2.19.39-.42 1.045-.63 1.965-.63h1.83l.21.21V24.17c0 .45.1.8.3 1.05.21.24.555.36 1.035.36h1.68c.25.73.375 1.47.375 2.22 0 .17-.01.35-.03.54-.01.19-.04.36-.09.51-.55.07-1.185.135-1.905.195-.72.07-1.38.105-1.98.105-1.36 0-2.36-.335-3-1.005-.64-.68-.96-1.735-.96-3.165V12.335zM88.42 14c.14.53.21 1.075.21 1.635 0 .61-.07 1.175-.21 1.695l-5.595-.09-4.89.09a7.097 7.097 0 0 1-.195-1.695c0-.54.065-1.085.195-1.635l5.025.075L88.42 14z" fill="#F76631"/><path d="M105.896 15.47c0 1.56-.32 2.87-.96 3.93a6.081 6.081 0 0 1-2.61 2.385c-1.1.53-2.36.795-3.78.795H94.15v-3.51c.27-.02.685-.04 1.245-.06a97.22 97.22 0 0 1 1.635-.045c.54-.02.91-.03 1.11-.03.8 0 1.405-.19 1.815-.57.41-.38.685-.835.825-1.365.14-.54.21-1.05.21-1.53 0-.47-.07-.97-.21-1.5-.14-.54-.415-1-.825-1.38-.41-.38-1.015-.57-1.815-.57h-.9c-.29-.01-.64-.02-1.05-.03V29c-.4.07-.825.115-1.275.135-.44.03-.82.045-1.14.045-.29 0-.67-.015-1.14-.045-.46-.02-.88-.065-1.26-.135V8.66l.21-.21c1.28-.03 2.475-.055 3.585-.075 1.12-.03 2.245-.045 3.375-.045 1.42 0 2.68.26 3.78.78a5.78 5.78 0 0 1 2.61 2.355c.64 1.05.96 2.385.96 4.005zm15.183 9.255c0 .48.075.915.225 1.305.16.39.365.675.615.855-.08.42-.265.86-.555 1.32-.29.46-.58.805-.87 1.035-1.33-.02-2.345-.475-3.045-1.365-.7-.89-1.05-1.96-1.05-3.21V14.03c.32-.06.69-.105 1.11-.135a16.448 16.448 0 0 1 2.43 0c.42.03.8.075 1.14.135v10.695zm-12.885-6.945c0-.59-.06-1.14-.18-1.65-.11-.51-.3-.955-.57-1.335.35-.29.78-.53 1.29-.72a4.645 4.645 0 0 1 1.635-.285c.94 0 1.59.25 1.95.75.37.5.555 1.215.555 2.145v6.39c0 .67.09 1.17.27 1.5.19.32.53.48 1.02.48.31 0 .665-.08 1.065-.24.41-.17.815-.445 1.215-.825.41-.38.765-.88 1.065-1.5v4.095c-.7.69-1.46 1.31-2.28 1.86-.82.55-1.765.825-2.835.825-.91 0-1.68-.225-2.31-.675-.62-.46-1.09-1.09-1.41-1.89-.32-.81-.48-1.735-.48-2.775v-6.15zm19.69 2.46c.36-.48.77-.975 1.23-1.485.46-.52.86-.965 1.2-1.335l-.09-.15c-.37.04-.775.08-1.215.12-.44.03-.88.055-1.32.075-.43.02-.83.03-1.2.03h-2.31c-.05-.23-.09-.47-.12-.72a5.934 5.934 0 0 1-.045-.705c0-.35.025-.7.075-1.05.05-.35.11-.68.18-.99h10.47c.19.56.335 1.045.435 1.455.11.41.165.78.165 1.11 0 .21-.035.445-.105.705-.06.25-.17.475-.33.675l-3.675 4.845c-.34.43-.71.89-1.11 1.38-.39.48-.775.92-1.155 1.32l.09.15c.43-.06.84-.105 1.23-.135.39-.03.77-.045 1.14-.045h1.035c.46 0 .935-.03 1.425-.09.5-.07.96-.205 1.38-.405.17.4.29.745.36 1.035.08.28.12.58.12.9 0 .62-.185 1.12-.555 1.5-.37.38-1.02.57-1.95.57h-9.045c-.19-.56-.325-1.01-.405-1.35-.08-.35-.12-.66-.12-.93 0-.26.05-.535.15-.825.1-.29.27-.595.51-.915l3.555-4.74zm13.476 0c.36-.48.77-.975 1.23-1.485.46-.52.86-.965 1.2-1.335l-.09-.15c-.37.04-.775.08-1.215.12-.44.03-.88.055-1.32.075-.43.02-.83.03-1.2.03h-2.31c-.05-.23-.09-.47-.12-.72a5.934 5.934 0 0 1-.045-.705c0-.35.025-.7.075-1.05.05-.35.11-.68.18-.99h10.47c.19.56.335 1.045.435 1.455.11.41.165.78.165 1.11 0 .21-.035.445-.105.705-.06.25-.17.475-.33.675l-3.675 4.845c-.34.43-.71.89-1.11 1.38-.39.48-.775.92-1.155 1.32l.09.15c.43-.06.84-.105 1.23-.135.39-.03.77-.045 1.14-.045h1.035c.46 0 .935-.03 1.425-.09.5-.07.96-.205 1.38-.405.17.4.29.745.36 1.035.08.28.12.58.12.9 0 .62-.185 1.12-.555 1.5-.37.38-1.02.57-1.95.57h-9.045c-.19-.56-.325-1.01-.405-1.35-.08-.35-.12-.66-.12-.93 0-.26.05-.535.15-.825.1-.29.27-.595.51-.915l3.555-4.74zm19.582 8.355c-.36 1.36-.815 2.565-1.365 3.615-.55 1.05-1.3 1.87-2.25 2.46-.94.6-2.19.9-3.75.9-.6 0-1.255-.07-1.965-.21-.71-.13-1.27-.265-1.68-.405-.05-.53.015-1.13.195-1.8.19-.67.44-1.185.75-1.545.32.1.725.2 1.215.3.5.11.995.165 1.485.165.51 0 .955-.1 1.335-.3.39-.19.715-.47.975-.84.27-.36.48-.79.63-1.29l.12-.435c-.81-.01-1.485-.15-2.025-.42-.53-.28-.895-.77-1.095-1.47l-3.495-12.93c.48-.22.985-.38 1.515-.48.53-.1.99-.15 1.38-.15.57 0 1.04.14 1.41.42.38.28.665.81.855 1.59l1.41 5.775c.09.33.175.745.255 1.245.08.49.155.98.225 1.47.08.48.14.885.18 1.215.02.14.105.21.255.21l2.61-11.64c.26-.07.56-.12.9-.15.34-.03.655-.045.945-.045.41 0 .825.025 1.245.075.42.04.84.13 1.26.27l.18.315-3.705 14.085z" fill="#3F3C9A"/><path d="M35.477 13.807l-3.122-2.871V3.205c0-.68-.554-1.234-1.234-1.234h-4.18c-.756 0-1.36.604-1.36 1.36v1.36l-3.174-2.972a6.477 6.477 0 0 0-8.789 0L.523 13.807a1.589 1.589 0 0 0-.403 1.788c.251.63.856 1.033 1.51 1.033h1.688c-.05.453-.076.931-.076 1.41v5.087c0 8.109 6.649 14.758 14.758 14.758 8.11 0 14.758-6.649 14.758-14.758v-5.062c0-.479-.026-.957-.076-1.41h1.687c.68 0 1.285-.403 1.511-1.033.252-.63.101-1.335-.403-1.813zm-16.646.478c.831-1.561 2.594-2.24 3.98-1.51 1.384.73 1.837 2.568 1.006 4.13-.83 1.56-2.593 2.24-3.979 1.51-1.385-.73-1.838-2.568-1.007-4.13zm-5.641-1.51c1.385-.73 3.173-.051 3.979 1.51.831 1.562.378 3.425-1.007 4.13-1.385.73-3.173.05-3.98-1.51-.83-1.562-.377-3.426 1.008-4.13zM8.002 20.53c-.705-1.335-.302-2.921.856-3.526 1.21-.63 2.72-.05 3.425 1.285.706 1.334.303 2.92-.856 3.525-1.184.63-2.72.05-3.425-1.284zM18 32.518c-1.889-.05-7.051-.05-7.051-4.633 0-5.264 4.18-8.21 7.051-8.21 2.87 0 7.051 2.946 7.051 8.21.026 4.583-5.162 4.583-7.051 4.633zm9.998-11.987c-.705 1.335-2.216 1.914-3.4 1.284-1.183-.63-1.561-2.19-.856-3.525s2.216-1.914 3.4-1.285c1.183.63 1.561 2.191.856 3.526z" fill="#F76631"/></svg>